<svg id="Layer_2" data-name="Layer 2" xmlns="http://www.w3.org/2000/svg" viewBox="0 0 150 59.45"><defs><style>.cls-1{fill:#333;}.cls-2{fill:red;}.cls-3{fill:#4d4e4e;}</style></defs><title>logo</title><polygon class="cls-1" points="49.3 9.83 56.39 38.07 53.05 40.54 52.84 50.73 39.26 54.67 25.5 54.41 25.5 7.6 48.16 7.24 49.3 9.83"/><path d="M74.05,146.5c8.83-.84,20.1-.6,32.2,0l-32.2,26.87V146.5" transform="translate(-48.77 -140.46)"/><path class="cls-2" d="M69.6,150.43c-10.09,1.64-14.33,7.56-15.3,15.89-4-2.6-6.33-6.15-5.27-11.58,1.87-6.7,5.54-10.66,12.24-10.45l-2.82-3.79c5.4-.42,9.64,2.17,13.08,7.12Z" transform="translate(-48.77 -140.46)"/><path d="M74.51,199.91H106c-17-12.11-29.35-23.38-31.41-32.74Z" transform="translate(-48.77 -140.46)"/><path d="M74.7,199.91H64.26V161.46c-.42-8.24,1.3-14.21,10.44-15Z" transform="translate(-48.77 -140.46)"/><path class="cls-2" d="M74.15,156.4a48.8,48.8,0,0,1,1.33,8c.16,1.34.19,2.68.29,4s.06,2.68.09,4,0,2.69-.09,4-.13,2.68-.28,4a50.15,50.15,0,0,1-1.32,8.06H74l-.11-16.1L74,156.4Z" transform="translate(-48.77 -140.46)"/><path class="cls-2" d="M106.1,146.47A82.91,82.91,0,0,1,99,154.22c-1.23,1.25-2.53,2.39-3.79,3.59l-3.91,3.44c-1.35,1.1-2.68,2.22-4,3.3s-2.72,2.15-4.15,3.16a82,82,0,0,1-8.8,5.73l-.13-.15L90,159.73l16-13.42Z" transform="translate(-48.77 -140.46)"/><path class="cls-2" d="M105.58,199.87a76.21,76.21,0,0,1-8.72-5.48c-1.42-1-2.75-2-4.12-3l-4-3.18c-1.29-1.11-2.6-2.19-3.88-3.32s-2.54-2.26-3.76-3.47a78.39,78.39,0,0,1-7-7.51l.12-.16L90,186.64l15.69,13.07Z" transform="translate(-48.77 -140.46)"/><path class="cls-2" d="M84.88,182.58a47.67,47.67,0,0,1-4.72-5,31.09,31.09,0,0,1-2.09-2.75,24.73,24.73,0,0,1-1.7-3l0,0c.72.9,1.38,1.83,2.07,2.75l2,2.78a60,60,0,0,0,4.44,5.24Z" transform="translate(-48.77 -140.46)"/><path class="cls-3" d="M129.05,168.84c2-2.31,4.48-7.66,4.48-11.05,0-1.74-.65-3-2.43-3-10.27,0-17.93,12.31-17.93,21.41,0,4.52,1.78,8.74,7,8.74,5.49,0,12.06-6.57,13.62-8,.05,0,.26.18.18.27-1.74,1.74-8.14,8.7-14.23,8.7-5.79,0-8.53-3.83-8.53-8.88,0-10.09,8.57-22.93,20-22.93,3,0,4,1.35,4,3.22,0,2.92-2.44,7.05-4.4,9.66l4.05-4.31a9.49,9.49,0,0,0,1.43-1.91c.26.39.74,1.13.31,1.52-.92.78-4.22,3.66-7.27,6.83C129.18,169.15,129.09,169,129.05,168.84Z" transform="translate(-48.77 -140.46)"/><path class="cls-3" d="M133.36,184.07c-.09-1-.13-2-.13-2.78a19.59,19.59,0,0,1,.17-2.48c1-10.88,11.4-26.55,15.54-26.55,1,0,1.52,1.13,1.52,2.13,0,7.4-11.4,17.93-15.49,22.28a29.08,29.08,0,0,0-.48,4.75c2-3.4,4.92-7.79,7.35-7.79.52,0,.74.39.74,1,0,2-2.22,7.57-2,8.13s4-4,5.83-6.26c.09-.09.26.13.22.22-1.22,1.87-6.35,8.22-7.44,8.22-.18,0-.26-.13-.26-.39,0-1.44,2.43-7.7,2.43-9.4,0-.17,0-.57-.39-.57-1.91,0-6.79,8.45-7.39,9.53C133.53,184.11,133.4,184.11,133.36,184.07ZM135.1,176c5.52-6.18,13.88-14.62,13.88-21.19,0-1-.48-1.44-1-1.44C145.06,153.35,136.58,167.93,135.1,176Z" transform="translate(-48.77 -140.46)"/><path class="cls-3" d="M152.81,173.06c-3.31,0-7.23,5.27-7.36,8.79,0,.52.13.74.44.74,1.57,0,7.18-7.57,7.66-8.09.13.39.65.48.65.78a.51.51,0,0,1-.17.35,14.48,14.48,0,0,0-3,6.13c0,.22.08.27.21.27,1.61,0,5.7-4.1,6.84-5.53,0-.09.3.09.21.22-1,1.56-6.13,7-8.18,7-.39,0-.43-.26-.43-.48a13.44,13.44,0,0,1,2-5.44s-.13-.08-.18,0c-1.09,1.48-4.31,6.05-6.22,6.05-1,0-1.35-1.31-1.35-2.05,0-3.22,4.31-9.39,8.27-9.39a3.75,3.75,0,0,1,2.39.91s0,.35-.17.26A2.69,2.69,0,0,0,152.81,173.06Z" transform="translate(-48.77 -140.46)"/><path class="cls-3" d="M164.9,176.54a2.26,2.26,0,0,0,2.18,1.26,4.07,4.07,0,0,0,2.44-.91c.08-.09.3.13.21.22a6,6,0,0,1-3.35,1.48,2,2,0,0,1-2-1.22c-2.26,3.31-5.75,6.87-6.09,7.53-.05,0-.18,0-.22-.05a15.34,15.34,0,0,1,.56-9.92,3.75,3.75,0,0,1,2-1.65c.08,0,.13.35,0,.43a8.34,8.34,0,0,0-1,1.35,9.59,9.59,0,0,0-1,4.53,8.13,8.13,0,0,0,.44,3,48.79,48.79,0,0,0,5-5.91,7.57,7.57,0,0,1,1.09-4.4,1.7,1.7,0,0,1,.78-.39C166.82,172.8,166.17,174.58,164.9,176.54Zm-.17-1v.31c.78-1.27,1.26-2.44,1-3.18A5.91,5.91,0,0,0,164.73,175.54Z" transform="translate(-48.77 -140.46)"/><path class="cls-3" d="M176.09,173.06c-3.31,0-7.23,5.27-7.36,8.79,0,.52.13.74.44.74,1.56,0,7.18-7.57,7.66-8.09.13.39.65.48.65.78a.53.53,0,0,1-.18.35,14.44,14.44,0,0,0-3,6.13c0,.22.08.27.21.27,1.61,0,5.7-4.1,6.83-5.53.05-.09.31.09.22.22-1,1.56-6.13,7-8.18,7-.39,0-.43-.26-.43-.48A13.52,13.52,0,0,1,175,177.8s-.13-.08-.17,0c-1.09,1.48-4.31,6.05-6.22,6.05-1,0-1.35-1.31-1.35-2.05,0-3.22,4.31-9.39,8.27-9.39a3.75,3.75,0,0,1,2.39.91s0,.35-.17.26A2.69,2.69,0,0,0,176.09,173.06Z" transform="translate(-48.77 -140.46)"/><path class="cls-3" d="M191.84,176.72c-2.35,3.13-6.7,7.87-9.31,7.87-1.31,0-2.18-1.09-2.18-4.35,0-7.44,10.49-26.76,15.66-26.76,1.05,0,1.53,1.13,1.53,2.13,0,8.31-13.1,19.19-15.32,21.11a14.62,14.62,0,0,0-.39,3.09c0,2.56.65,3.43,1.65,3.43,2.18,0,6-4.26,8.14-6.74C191.71,176.41,191.88,176.63,191.84,176.72Zm-9.45-.7c2.75-2.44,13.67-12.62,13.67-20,0-1-.48-1.43-1-1.43A1.82,1.82,0,0,0,194,155C189.62,158.7,184.14,169.06,182.39,176Z" transform="translate(-48.77 -140.46)"/><path class="cls-3" d="M192.75,173.19c.3.39,1,.74,1,1.26a.7.7,0,0,1-.17.44,15.85,15.85,0,0,0-2.26,6.79c0,.3,0,.48.26.48,1.61,0,5.79-4.23,6.92-5.66,0-.09.3.09.21.22-1,1.56-6.22,7.13-8.26,7.13-.48,0-.48-.43-.48-.69a20.15,20.15,0,0,1,1.17-5.23C191.71,176.41,192.66,173.58,192.75,173.19Zm2.26-4.48a.67.67,0,0,1,.7.74,1.34,1.34,0,0,1-1.18,1.22c-.43,0-.65-.44-.65-.87A1.14,1.14,0,0,1,195,168.71Z" transform="translate(-48.77 -140.46)"/><text x="-48.77" y="-140.46"></text></svg>