<svg id="Layer_18" data-name="Layer 18" xmlns="http://www.w3.org/2000/svg" viewBox="0 0 435.57 376.38">
  <defs>
    <style>
      .cls-1 {
        fill: #29abe2;
      }

      .cls-1, .cls-2, .cls-3 {
        stroke: #000;
      }

      .cls-1, .cls-2, .cls-3, .cls-4 {
        stroke-miterlimit: 10;
      }

      .cls-2, .cls-5 {
        fill: #fff;
      }

      .cls-3 {
        fill: #c1272d;
      }

      .cls-4 {
        fill: none;
        stroke: #fff;
        stroke-width: 2px;
      }
    </style>
  </defs>
  <title>navmenu</title>
  <polygon class="cls-1" points="0.5 150.5 289.89 75.66 259.79 0.72 0.5 150.31 0.5 150.5"/>
  <polygon class="cls-1" points="0.5 150.66 349.89 150.66 337.89 59.66 0.5 150.5 0.5 150.66"/>
  <polygon class="cls-1" points="0.5 150.66 0.5 150.82 389.89 254.66 399.89 150.66 0.5 150.66"/>
  <polygon class="cls-1" points="0.5 150.82 0.5 151.01 389.89 375.66 434.89 266.66 0.5 150.82"/>
  <path class="cls-2" d="M1015.11,330.51v300a150,150,0,0,0,0-300Z" transform="translate(-1014.61 -329.84)"/>
  <path class="cls-3" d="M1015.11,340.51v280a140,140,0,0,0,0-280Z" transform="translate(-1014.61 -329.84)"/>
  <path class="cls-2" d="M1015.11,400.52v160a80,80,0,0,0,0-160Z" transform="translate(-1014.61 -329.84)"/>
  <path class="cls-1" d="M1015.11,420.52v120a60,60,0,0,0,0-120Z" transform="translate(-1014.61 -329.84)"/>
  <line class="cls-4" x1="69.2" y1="110.68" x2="121.18" y2="80.69"/>
  <line class="cls-4" x1="69.2" y1="190.64" x2="121.18" y2="220.63"/>
  <g>
    <path class="cls-5" d="M1021.93,492.92l6.74-6.3,6.81-6.23c2.28-2.06,4.44-4.26,6.87-6.15a70,70,0,0,1,7.58-5.32l.14.16a70,70,0,0,1-6.42,6.68c-2.24,2.11-4.74,3.91-7.13,5.85l-7.19,5.77-7.26,5.7Z" transform="translate(-1014.61 -329.84)"/>
    <path class="cls-5" d="M1022.07,468.92l7.26,5.7,7.19,5.77c2.39,1.94,4.89,3.74,7.13,5.85a70,70,0,0,1,6.42,6.68l-.14.16a70,70,0,0,1-7.58-5.32c-2.43-1.89-4.59-4.09-6.87-6.15l-6.81-6.23-6.74-6.3Z" transform="translate(-1014.61 -329.84)"/>
  </g>
</svg>
