<svg xmlns="http://www.w3.org/2000/svg" viewBox="0 0 160.77 166.39"><defs><style>.cls-1{isolation:isolate;}.cls-2{mix-blend-mode:luminosity;}.cls-3{fill:#1a1a1a;}.cls-4{fill:#999;}.cls-5{fill:#4d4d4d;}</style></defs><title>shield</title><g class="cls-1"><g id="shield"><g class="cls-2"><path class="cls-3" d="M279.86,196.52C266.34,246.28,299.12,321,348,346.36c45.92-16.49,71.07-91.06,88.34-150.5C374.21,177.34,321.06,175.68,279.86,196.52Z" transform="translate(-276.64 -180.94)"/><path class="cls-4" d="M279.86,196.52c-3.66,14.18-3.5,29.07-1.2,43.42a151.34,151.34,0,0,0,5.09,21.22,166.11,166.11,0,0,0,7.87,20.35A159.23,159.23,0,0,0,315,318.19c9.45,11,20.58,20.7,33.43,27.39l-.7-.05a68.31,68.31,0,0,0,19.12-11.08,100.06,100.06,0,0,0,15.49-16c9.23-11.71,16.52-24.86,22.94-38.35A416.74,416.74,0,0,0,422,238.49c4.92-14.15,9.32-28.48,13.52-42.87l.58,1.07c-12.78-3.77-25.7-7.1-38.78-9.63a271,271,0,0,0-39.63-4.87,189.59,189.59,0,0,0-39.82,2.25A138.63,138.63,0,0,0,279.86,196.52Zm0,0a139.11,139.11,0,0,1,37.89-12.68,182.76,182.76,0,0,1,40-2.77,272.1,272.1,0,0,1,39.85,4.55,386.5,386.5,0,0,1,39,9.41l.82.25-.24.82c-4.17,14.42-8.53,28.79-13.43,43A416.78,416.78,0,0,1,407.05,281c-6.43,13.59-13.87,26.82-23.25,38.68A102,102,0,0,1,368,335.88a70,70,0,0,1-19.68,11.31l-.36.14-.34-.18c-13.09-6.87-24.37-16.74-33.81-27.95A160.93,160.93,0,0,1,290.54,282,157.24,157.24,0,0,1,278,240C275.91,225.59,276,210.64,279.86,196.52Z" transform="translate(-276.64 -180.94)"/></g></g><g id="logo"><g class="cls-2"><polygon class="cls-5" points="86.62 53.92 92.53 77.44 89.74 79.5 89.58 87.99 78.25 91.27 66.79 91.06 66.79 52.06 85.68 51.76 86.62 53.92"/><path d="M343.25,231.7c7.35-.7,16.74-.5,26.82,0l-26.82,22.38V231.7" transform="translate(-276.64 -180.94)"/><path class="cls-4" d="M339.53,235c-8.4,1.36-11.93,6.3-12.74,13.24-3.34-2.17-5.27-5.13-4.39-9.65,1.56-5.58,4.62-8.88,10.19-8.71l-2.34-3.16c4.5-.34,8,1.81,10.9,5.94Z" transform="translate(-276.64 -180.94)"/><path d="M343.63,276.2h26.26c-14.14-10.09-24.46-19.48-26.17-27.28Z" transform="translate(-276.64 -180.94)"/><path d="M343.79,276.2h-8.7v-32c-.35-6.87,1.08-11.85,8.7-12.53Z" transform="translate(-276.64 -180.94)"/><path class="cls-4" d="M343.3,240c.19,1.11.27,2.23.41,3.35l.24,3.35c.14,2.24.14,4.47.2,6.71s0,4.47-.19,6.7l-.23,3.36c-.14,1.12-.23,2.23-.42,3.35h-.1l0-13.41,0-13.41Z" transform="translate(-276.64 -180.94)"/><path class="cls-4" d="M369.92,231.65c-1,1.08-2,2.08-3,3.12l-3.15,3c-2.12,2-4.33,3.85-6.49,5.77s-4.45,3.7-6.74,5.47L347,251.63c-1.2.83-2.35,1.7-3.58,2.49l-.07-.07,13.2-11.28,13.27-11.2Z" transform="translate(-276.64 -180.94)"/><path class="cls-4" d="M369.53,276.14c-1.22-.76-2.36-1.6-3.55-2.39l-3.43-2.52c-2.27-1.7-4.46-3.51-6.69-5.26s-4.33-3.66-6.43-5.57l-3.13-2.89c-1-1-2.05-2-3-3l.06-.08,13.16,10.78,13.09,10.87Z" transform="translate(-276.64 -180.94)"/><text x="-276.64" y="-180.94"></text></g></g></g></svg>